# xmcd
#
# Track frame offsets: 
#        150
#        18187
#        33685
#        61677
#        78780
#        99228
#        113994
#        138364
#        155143
#        170029
#        191151
#        208262
#        226873
#        243678
#        263125
#        281221
#        297465
#
# Disc length: 4264 seconds
#
# Revision: 0
# Processed by: cddbd v1.5.2PL0 Copyright (c) Steve Scherf et al.
# Submitted via: ExactAudioCopy v1.0b1
#
DISCID=fb10a611
DTITLE=Various Artist - Best Of Blues and Roots 2011
DYEAR=2011
DGENRE=Blues
TTITLE0=Angus and Julia Stone - Big Jet Plane
TTITLE1=The John Butler Trio - Good Excuse
TTITLE2=Jeff Lang - South
TTITLE3=Dan Sultan - Walk Through My Dream
TTITLE4=Ben Harper And Relentless7 - Skin Thin
TTITLE5=Ash Grunwald - Lady Luck
TTITLE6=B.B. King - The Thrill Is Gone
TTITLE7=Eric Bibb - Shine On
TTITLE8=The Blind Boys Of Alabama - Let's Make A Better World
TTITLE9=Jill Barber - Oh My My
TTITLE10=Saltwater Band - Malk
TTITLE11=The Cat Empire - Falling
TTITLE12=Michael Franti and Spearhead - The Sound Of Sunshine
TTITLE13=Matthew Barber - Comeback Baby
TTITLE14=Andrew Morris - Cry
TTITLE15=The Audreys - Poorhouse
TTITLE16=Tony Joe White - Season Man
EXTD=
EXTT0=
EXTT1=
EXTT2=
EXTT3=
EXTT4=
EXTT5=
EXTT6=
EXTT7=
EXTT8=
EXTT9=
EXTT10=
EXTT11=
EXTT12=
EXTT13=
EXTT14=
EXTT15=
EXTT16=
PLAYORDER=
